# xmcd
#
# Track frame offsets:
#	150
#	18333
#	38426
#	57907
#	77795
#	97395
#	115064
#	135877
#	156826
#
# Disc length: 2384 seconds
#
# Revision: 1
# Processed by: cddbd v1.5.2PL0 Copyright (c) Steve Scherf et al.
# Submitted via: audiograbber 1.83.01
#
DISCID=67094e09
DTITLE=Lachy Doley - Typically Individual Conforming Anti-Social
DYEAR=2012
DGENRE=Soul
TTITLE0=Fire To Save
TTITLE1=Oh Boy!
TTITLE2=Pressure Of The Cool
TTITLE3=Wouldn't It Be Good
TTITLE4=Miss You
TTITLE5=Memory Lane
TTITLE6=Mother
TTITLE7=Talia
TTITLE8=Northern Light
EXTD=
EXTT0=
EXTT1=
EXTT2=
EXTT3=
EXTT4=
EXTT5=
EXTT6=
EXTT7=
EXTT8=
PLAYORDER=
